<svg width="35" height="32" viewBox="0 0 35 32" fill="none" xmlns="http://www.w3.org/2000/svg">
<mask id="path-1-inside-1_305_814" fill="white">
<path d="M21.1408 14.6446C20.9 14.6446 20.6764 14.5784 20.4778 14.4719V14.4748C20.4778 14.8536 20.3305 15.2094 20.0634 15.4758C19.7962 15.743 19.4407 15.8903 19.0623 15.8903C18.818 15.8903 18.5916 15.8224 18.3908 15.7131C18.3706 16.0597 18.232 16.3836 17.9849 16.631C17.7177 16.8982 17.3622 17.0454 16.9836 17.0454C16.2313 17.0454 15.6204 16.4541 15.5764 15.7129C15.3436 15.8387 15.0804 15.9046 14.809 15.8872C14.069 15.8387 13.4894 15.1993 13.4894 14.4312V8.06453L12.7644 9.32049C12.4883 9.80087 11.9714 10.0991 11.4149 10.0991C11.1438 10.0991 10.8759 10.028 10.6386 9.89204C10.3432 9.72076 10.1319 9.44582 10.044 9.1169C9.95565 8.78777 10.0014 8.44356 10.1722 8.14857C10.1722 8.14857 12.5442 4.04137 12.6888 3.78908C12.706 3.75115 12.755 3.64113 12.7967 3.54736C12.8366 3.45783 12.8707 3.36595 12.9035 3.27359C13.6187 1.25431 15.3898 -1.90735e-05 17.5257 -1.90735e-05C20.2994 -1.90735e-05 22.5559 2.44688 22.5559 5.45457L22.5561 13.2289C22.5561 13.6073 22.4091 13.9628 22.1422 14.2302C21.875 14.4974 21.5196 14.6446 21.1408 14.6446ZM17.5257 0.752123C15.6904 0.752123 14.2275 1.78878 13.6124 3.52514C13.5731 3.6354 13.5321 3.74565 13.4843 3.85309C13.3455 4.16432 13.3455 4.16432 13.3064 4.20907L13.3012 4.2046C13.1075 4.57001 12.5322 5.56635 10.8234 8.525C10.7532 8.64633 10.7346 8.78723 10.7704 8.92198C10.8067 9.05675 10.8936 9.1703 11.014 9.2398C11.3877 9.45443 11.8994 9.3159 12.1124 8.94484L13.5399 6.47339C13.6252 6.32614 13.7976 6.25381 13.963 6.29858C14.1274 6.34263 14.2417 6.49177 14.2417 6.66187V14.4314C14.2417 14.798 14.5183 15.1144 14.8583 15.1368C15.0543 15.1471 15.2371 15.0814 15.3745 14.9443C15.4993 14.8194 15.5681 14.6531 15.5681 14.4752V9.39383C15.5681 9.18603 15.7366 9.01757 15.9444 9.01757C16.1522 9.01757 16.3206 9.18579 16.3206 9.39383L16.3204 15.6302C16.3204 15.9958 16.618 16.2934 16.9836 16.2934C17.1613 16.2934 17.3281 16.2246 17.4532 16.0997C17.578 15.9746 17.6468 15.8078 17.6468 15.6302V9.39382C17.6468 9.18602 17.815 9.01757 18.0231 9.01757C18.2309 9.01757 18.3993 9.18579 18.3993 9.39382L18.3991 14.4168V14.4752C18.3991 14.8406 18.6966 15.1381 19.0625 15.1381C19.2399 15.1381 19.4063 15.0691 19.5321 14.9438C19.6569 14.8191 19.7257 14.6528 19.7257 14.4749V9.39356C19.7257 9.18576 19.894 9.01731 20.102 9.01731C20.3098 9.01731 20.4782 9.18552 20.4782 9.39356L20.4778 13.2291C20.4778 13.595 20.7753 13.8925 21.1407 13.8925C21.3186 13.8925 21.4849 13.8235 21.6098 13.6989C21.7351 13.5736 21.8037 13.4067 21.8037 13.2291L21.8039 5.45475C21.8039 2.86201 19.8848 0.752123 17.5257 0.752123Z"/>
</mask>
<path d="M21.1408 14.6446C20.9 14.6446 20.6764 14.5784 20.4778 14.4719V14.4748C20.4778 14.8536 20.3305 15.2094 20.0634 15.4758C19.7962 15.743 19.4407 15.8903 19.0623 15.8903C18.818 15.8903 18.5916 15.8224 18.3908 15.7131C18.3706 16.0597 18.232 16.3836 17.9849 16.631C17.7177 16.8982 17.3622 17.0454 16.9836 17.0454C16.2313 17.0454 15.6204 16.4541 15.5764 15.7129C15.3436 15.8387 15.0804 15.9046 14.809 15.8872C14.069 15.8387 13.4894 15.1993 13.4894 14.4312V8.06453L12.7644 9.32049C12.4883 9.80087 11.9714 10.0991 11.4149 10.0991C11.1438 10.0991 10.8759 10.028 10.6386 9.89204C10.3432 9.72076 10.1319 9.44582 10.044 9.1169C9.95565 8.78777 10.0014 8.44356 10.1722 8.14857C10.1722 8.14857 12.5442 4.04137 12.6888 3.78908C12.706 3.75115 12.755 3.64113 12.7967 3.54736C12.8366 3.45783 12.8707 3.36595 12.9035 3.27359C13.6187 1.25431 15.3898 -1.90735e-05 17.5257 -1.90735e-05C20.2994 -1.90735e-05 22.5559 2.44688 22.5559 5.45457L22.5561 13.2289C22.5561 13.6073 22.4091 13.9628 22.1422 14.2302C21.875 14.4974 21.5196 14.6446 21.1408 14.6446ZM17.5257 0.752123C15.6904 0.752123 14.2275 1.78878 13.6124 3.52514C13.5731 3.6354 13.5321 3.74565 13.4843 3.85309C13.3455 4.16432 13.3455 4.16432 13.3064 4.20907L13.3012 4.2046C13.1075 4.57001 12.5322 5.56635 10.8234 8.525C10.7532 8.64633 10.7346 8.78723 10.7704 8.92198C10.8067 9.05675 10.8936 9.1703 11.014 9.2398C11.3877 9.45443 11.8994 9.3159 12.1124 8.94484L13.5399 6.47339C13.6252 6.32614 13.7976 6.25381 13.963 6.29858C14.1274 6.34263 14.2417 6.49177 14.2417 6.66187V14.4314C14.2417 14.798 14.5183 15.1144 14.8583 15.1368C15.0543 15.1471 15.2371 15.0814 15.3745 14.9443C15.4993 14.8194 15.5681 14.6531 15.5681 14.4752V9.39383C15.5681 9.18603 15.7366 9.01757 15.9444 9.01757C16.1522 9.01757 16.3206 9.18579 16.3206 9.39383L16.3204 15.6302C16.3204 15.9958 16.618 16.2934 16.9836 16.2934C17.1613 16.2934 17.3281 16.2246 17.4532 16.0997C17.578 15.9746 17.6468 15.8078 17.6468 15.6302V9.39382C17.6468 9.18602 17.815 9.01757 18.0231 9.01757C18.2309 9.01757 18.3993 9.18579 18.3993 9.39382L18.3991 14.4168V14.4752C18.3991 14.8406 18.6966 15.1381 19.0625 15.1381C19.2399 15.1381 19.4063 15.0691 19.5321 14.9438C19.6569 14.8191 19.7257 14.6528 19.7257 14.4749V9.39356C19.7257 9.18576 19.894 9.01731 20.102 9.01731C20.3098 9.01731 20.4782 9.18552 20.4782 9.39356L20.4778 13.2291C20.4778 13.595 20.7753 13.8925 21.1407 13.8925C21.3186 13.8925 21.4849 13.8235 21.6098 13.6989C21.7351 13.5736 21.8037 13.4067 21.8037 13.2291L21.8039 5.45475C21.8039 2.86201 19.8848 0.752123 17.5257 0.752123Z" fill="#4CAF4F"/>
<path d="M20.4778 14.4719H19.1445V12.2441L21.1079 13.2969L20.4778 14.4719ZM20.0634 15.4758L19.1206 14.533L19.1218 14.5318L20.0634 15.4758ZM18.3908 15.7131L17.0598 15.6353L17.1825 13.5368L19.0285 14.5421L18.3908 15.7131ZM17.9849 16.631L18.9282 17.5733L18.9277 17.5738L17.9849 16.631ZM15.5764 15.7129L14.9424 14.5399L16.7833 13.5449L16.9073 15.6338L15.5764 15.7129ZM14.809 15.8872L14.7235 17.2178L14.7217 17.2177L14.809 15.8872ZM13.4894 8.06453L12.3346 7.39798L14.8227 3.08747V8.06453H13.4894ZM12.7644 9.32049L11.6085 8.65604L11.6097 8.65394L12.7644 9.32049ZM10.6386 9.89204L9.97575 11.0489L9.96991 11.0455L10.6386 9.89204ZM10.044 9.1169L11.3317 8.77123L11.3321 8.77273L10.044 9.1169ZM10.1722 8.14857L11.3268 8.81539L11.326 8.81669L10.1722 8.14857ZM12.6888 3.78908L13.9032 4.33969L13.877 4.39742L13.8455 4.45242L12.6888 3.78908ZM12.7967 3.54736L11.5785 3.00557L11.5785 3.00555L12.7967 3.54736ZM12.9035 3.27359L14.1603 3.71877L14.1602 3.71914L12.9035 3.27359ZM22.5559 5.45457L21.2226 5.45461V5.45457H22.5559ZM22.5561 13.2289L23.8895 13.2289V13.2289H22.5561ZM22.1422 14.2302L23.0859 15.1722L23.085 15.1731L22.1422 14.2302ZM13.6124 3.52514L14.8692 3.97038L14.8682 3.97325L13.6124 3.52514ZM13.4843 3.85309L14.7023 4.39536L14.702 4.39606L13.4843 3.85309ZM13.3064 4.20907L14.3104 5.08636L13.4382 6.0847L12.4348 5.21814L13.3064 4.20907ZM13.3012 4.2046L12.1231 3.58023L12.9065 2.10193L14.1727 3.19553L13.3012 4.2046ZM10.8234 8.525L11.978 9.19185L11.9775 9.19281L10.8234 8.525ZM10.7704 8.92198L9.48291 9.26861L9.4818 9.26444L10.7704 8.92198ZM11.014 9.2398L10.3499 10.396L10.3474 10.3945L11.014 9.2398ZM12.1124 8.94484L10.956 8.28113L10.9578 8.27796L12.1124 8.94484ZM13.5399 6.47339L12.3853 5.80651L12.3861 5.80511L13.5399 6.47339ZM13.963 6.29858L13.618 7.5865L13.6147 7.5856L13.963 6.29858ZM14.8583 15.1368L14.7879 16.4682L14.7793 16.4678L14.7707 16.4672L14.8583 15.1368ZM15.3745 14.9443L16.3173 15.8871L16.3165 15.8879L15.3745 14.9443ZM16.3206 9.39383L17.654 9.39383L17.654 9.39388L16.3206 9.39383ZM16.3204 15.6302L14.9871 15.6302L14.9871 15.6301L16.3204 15.6302ZM17.4532 16.0997L18.3969 17.0417L18.3951 17.0435L17.4532 16.0997ZM18.3993 9.39382L19.7327 9.39382L19.7327 9.39388L18.3993 9.39382ZM18.3991 14.4168L17.0658 14.4168L17.0658 14.4167L18.3991 14.4168ZM19.5321 14.9438L20.474 15.8875L20.4731 15.8883L19.5321 14.9438ZM20.4782 9.39356L21.8116 9.39356L21.8116 9.39372L20.4782 9.39356ZM20.4778 13.2291L19.1444 13.2291L19.1444 13.2289L20.4778 13.2291ZM21.6098 13.6989L22.5526 14.6417L22.5517 14.6426L21.6098 13.6989ZM21.8037 13.2291L20.4704 13.2291L20.4704 13.2291L21.8037 13.2291ZM21.8039 5.45475L23.1373 5.45475L23.1373 5.45479L21.8039 5.45475ZM21.1408 14.6446V15.978C20.6498 15.978 20.2115 15.8421 19.8477 15.647L20.4778 14.4719L21.1079 13.2969C21.1251 13.3061 21.136 13.3096 21.1404 13.3108C21.1441 13.3118 21.1436 13.3113 21.1408 13.3113V14.6446ZM20.4778 14.4719H21.8111V14.4748H20.4778H19.1445V14.4719H20.4778ZM20.4778 14.4748H21.8111C21.8111 15.2061 21.5241 15.9021 21.0049 16.4199L20.0634 15.4758L19.1218 14.5318C19.1313 14.5223 19.1361 14.5141 19.1388 14.5075C19.1416 14.5008 19.1445 14.4905 19.1445 14.4748H20.4778ZM20.0634 15.4758L21.0062 16.4187C20.4888 16.9361 19.794 17.2236 19.0623 17.2236V15.8903V14.5569C19.0776 14.5569 19.0877 14.5541 19.0945 14.5513C19.1013 14.5485 19.1101 14.5434 19.1206 14.533L20.0634 15.4758ZM19.0623 15.8903V17.2236C18.5649 17.2236 18.1211 17.0844 17.7532 16.884L18.3908 15.7131L19.0285 14.5421C19.0459 14.5516 19.0569 14.5552 19.0612 14.5564C19.065 14.5574 19.0647 14.5569 19.0623 14.5569V15.8903ZM18.3908 15.7131L19.7219 15.7909C19.6835 16.4472 19.4173 17.0837 18.9282 17.5733L17.9849 16.631L17.0416 15.6887C17.0465 15.6837 17.0494 15.6794 17.0518 15.6738C17.0545 15.6678 17.0586 15.6556 17.0598 15.6353L18.3908 15.7131ZM17.9849 16.631L18.9277 17.5738C18.4102 18.0913 17.7154 18.3787 16.9836 18.3787V17.0454V15.7121C16.9991 15.7121 17.0093 15.7093 17.0161 15.7064C17.0229 15.7036 17.0317 15.6986 17.0421 15.6882L17.9849 16.631ZM16.9836 17.0454V18.3787C15.5116 18.3787 14.3304 17.2234 14.2454 15.7919L15.5764 15.7129L16.9073 15.6338C16.9087 15.6565 16.918 15.6764 16.9344 15.692C16.9424 15.6997 16.9505 15.7046 16.9576 15.7075C16.9638 15.71 16.9717 15.7121 16.9836 15.7121V17.0454ZM15.5764 15.7129L16.2103 16.8858C15.7796 17.1186 15.269 17.2528 14.7235 17.2178L14.809 15.8872L14.8945 14.5566C14.8945 14.5566 14.8973 14.5569 14.9044 14.5552C14.9119 14.5535 14.9249 14.5493 14.9424 14.5399L15.5764 15.7129ZM14.809 15.8872L14.7217 17.2177C13.2413 17.1206 12.1561 15.8616 12.1561 14.4312H13.4894H14.8227C14.8227 14.4763 14.8391 14.511 14.8596 14.5336C14.8796 14.5557 14.8932 14.5565 14.8962 14.5567L14.809 15.8872ZM13.4894 14.4312H12.1561V8.06453H13.4894H14.8227V14.4312H13.4894ZM13.4894 8.06453L14.6442 8.73108L13.9192 9.98704L12.7644 9.32049L11.6097 8.65394L12.3346 7.39798L13.4894 8.06453ZM12.7644 9.32049L13.9204 9.98494C13.4052 10.8813 12.4462 11.4325 11.4149 11.4325V10.0991V8.7658C11.4967 8.7658 11.5714 8.72046 11.6085 8.65604L12.7644 9.32049ZM11.4149 10.0991V11.4325C10.9107 11.4325 10.4144 11.3002 9.97576 11.0489L10.6386 9.89204L11.3015 8.73517C11.3374 8.75571 11.3768 8.7658 11.4149 8.7658V10.0991ZM10.6386 9.89204L9.96991 11.0455C9.37129 10.6985 8.93557 10.1337 8.75585 9.46107L10.044 9.1169L11.3321 8.77273C11.3309 8.76818 11.3276 8.76013 11.3212 8.75176C11.3148 8.74346 11.3089 8.73942 11.3074 8.73854L10.6386 9.89204ZM10.044 9.1169L8.75625 9.46256C8.57582 8.79041 8.67028 8.08149 9.0183 7.48045L10.1722 8.14857L11.326 8.81669C11.3279 8.81341 11.3313 8.80581 11.3327 8.79503C11.3341 8.78422 11.3329 8.7756 11.3317 8.77123L10.044 9.1169ZM10.1722 8.14857C9.01754 7.48176 9.01755 7.48174 9.01757 7.48171C9.01759 7.48168 9.01762 7.48163 9.01765 7.48157C9.01772 7.48145 9.01783 7.48126 9.01798 7.48101C9.01826 7.48051 9.01869 7.47977 9.01926 7.47878C9.0204 7.47681 9.02211 7.47386 9.02435 7.46997C9.02884 7.46219 9.03551 7.45065 9.04421 7.43558C9.06162 7.40544 9.08717 7.36119 9.11974 7.3048C9.18488 7.192 9.2781 7.03059 9.39041 6.8361C9.61504 6.44712 9.91604 5.92586 10.2216 5.39672C10.8337 4.33663 11.4612 3.24965 11.5322 3.12575L12.6888 3.78908L13.8455 4.45242C13.7718 4.5808 13.141 5.67357 12.5309 6.73015C12.2254 7.25934 11.9243 7.78065 11.6997 8.16966C11.5874 8.36416 11.4941 8.52559 11.429 8.6384C11.3964 8.6948 11.3709 8.73904 11.3535 8.76919C11.3447 8.78426 11.3381 8.79581 11.3336 8.80359C11.3313 8.80748 11.3296 8.81043 11.3285 8.81241C11.3279 8.81339 11.3275 8.81414 11.3272 8.81464C11.3271 8.81488 11.327 8.81507 11.3269 8.8152C11.3268 8.81526 11.3268 8.81531 11.3268 8.81534C11.3268 8.81537 11.3268 8.81539 10.1722 8.14857ZM12.6888 3.78908L11.4745 3.23848C11.4892 3.20611 11.5357 3.10175 11.5785 3.00557L12.7967 3.54736L14.015 4.08915C13.9744 4.18051 13.9229 4.29619 13.9032 4.33969L12.6888 3.78908ZM12.7967 3.54736L11.5785 3.00555C11.597 2.96388 11.6175 2.91064 11.6468 2.82805L12.9035 3.27359L14.1602 3.71914C14.124 3.82126 14.0761 3.95178 14.015 4.08917L12.7967 3.54736ZM12.9035 3.27359L11.6467 2.82841C12.5497 0.278934 14.8227 -1.33335 17.5257 -1.33335V-1.90735e-05V1.33331C15.9568 1.33331 14.6877 2.22969 14.1603 3.71877L12.9035 3.27359ZM17.5257 -1.90735e-05V-1.33335C21.1354 -1.33335 23.8892 1.81423 23.8892 5.45457H22.5559H21.2226C21.2226 3.07953 19.4634 1.33331 17.5257 1.33331V-1.90735e-05ZM22.5559 5.45457L23.8892 5.45453L23.8895 13.2289L22.5561 13.2289L21.2228 13.229L21.2226 5.45461L22.5559 5.45457ZM22.5561 13.2289H23.8895C23.8895 13.9601 23.6026 14.6545 23.0859 15.1722L22.1422 14.2302L21.1985 13.2883C21.2091 13.2778 21.2142 13.2688 21.2171 13.2618C21.22 13.2548 21.2228 13.2445 21.2228 13.2289H22.5561ZM22.1422 14.2302L23.085 15.1731C22.5674 15.6907 21.8727 15.978 21.1408 15.978V14.6446V13.3113C21.1565 13.3113 21.1667 13.3084 21.1734 13.3056C21.1802 13.3028 21.189 13.2978 21.1994 13.2874L22.1422 14.2302ZM17.5257 0.752123V2.08546C16.258 2.08546 15.2967 2.76361 14.8692 3.97038L13.6124 3.52514L12.3556 3.0799C13.1584 0.81396 15.1228 -0.58121 17.5257 -0.58121V0.752123ZM13.6124 3.52514L14.8682 3.97325C14.8261 4.09119 14.7714 4.24015 14.7023 4.39536L13.4843 3.85309L12.2662 3.31082C12.2927 3.25115 12.32 3.1796 12.3566 3.07703L13.6124 3.52514ZM13.4843 3.85309L14.702 4.39606C14.641 4.533 14.5898 4.64865 14.5507 4.72699C14.5264 4.77561 14.487 4.85054 14.43 4.93353C14.3722 5.01762 14.3151 5.08104 14.3104 5.08636L13.3064 4.20907L12.3023 3.33179C12.3054 3.3282 12.3044 3.32937 12.3028 3.3312C12.3008 3.33357 12.2956 3.33961 12.2888 3.3479C12.2818 3.35648 12.2729 3.36757 12.2629 3.38076C12.2528 3.39406 12.2426 3.40821 12.2323 3.42314C12.2114 3.45353 12.1953 3.48016 12.1839 3.50029C12.1732 3.51909 12.1667 3.5321 12.1652 3.53503C12.1637 3.53806 12.1647 3.53628 12.1692 3.52657C12.1736 3.51717 12.1798 3.50364 12.1887 3.48393C12.1975 3.4644 12.2081 3.44081 12.2212 3.41166C12.2342 3.38256 12.2491 3.34921 12.2665 3.31012L13.4843 3.85309ZM13.3064 4.20907L12.4348 5.21814L12.4297 5.21366L13.3012 4.2046L14.1727 3.19553L14.1779 3.20001L13.3064 4.20907ZM13.3012 4.2046L14.4793 4.82897C14.2706 5.22271 13.6749 6.25383 11.978 9.19185L10.8234 8.525L9.66881 7.85816C11.3895 4.87886 11.9444 3.91731 12.1231 3.58023L13.3012 4.2046ZM10.8234 8.525L11.9775 9.19281C12.0841 9.00844 12.1139 8.78599 12.059 8.57952L10.7704 8.92198L9.4818 9.26444C9.3553 8.78846 9.42226 8.28423 9.66937 7.8572L10.8234 8.525ZM10.7704 8.92198L12.0579 8.57536C12.003 8.37157 11.8682 8.19334 11.6806 8.08506L11.014 9.2398L10.3474 10.3945C9.91907 10.1473 9.61034 9.74193 9.48291 9.26861L10.7704 8.92198ZM11.014 9.2398L11.6781 8.08363C11.5264 7.99645 11.3787 7.99703 11.2768 8.02447C11.1753 8.05181 11.0451 8.12586 10.956 8.28114L12.1124 8.94484L13.2688 9.60854C12.6877 10.621 11.3597 10.976 10.3499 10.396L11.014 9.2398ZM12.1124 8.94484L10.9578 8.27796L12.3853 5.80651L13.5399 6.47339L14.6944 7.14027L13.267 9.61171L12.1124 8.94484ZM13.5399 6.47339L12.3861 5.80511C12.7712 5.14021 13.5573 4.80746 14.3113 5.01155L13.963 6.29858L13.6147 7.5856C14.0379 7.70016 14.4791 7.51207 14.6936 7.14167L13.5399 6.47339ZM13.963 6.29858L14.308 5.01066C15.0561 5.21106 15.575 5.88892 15.575 6.66187H14.2417H12.9084C12.9084 7.09461 13.1988 7.47421 13.618 7.58649L13.963 6.29858ZM14.2417 6.66187H15.575V14.4314H14.2417H12.9084V6.66187H14.2417ZM14.2417 14.4314H15.575C15.575 14.2795 15.5188 14.1413 15.4264 14.0356C15.3341 13.9301 15.1713 13.8211 14.9459 13.8063L14.8583 15.1368L14.7707 16.4672C13.6483 16.3933 12.9084 15.4156 12.9084 14.4314H14.2417ZM14.8583 15.1368L14.9287 13.8053C14.7712 13.797 14.5787 13.8547 14.4325 14.0006L15.3745 14.9443L16.3165 15.8879C15.8955 16.3081 15.3374 16.4973 14.7879 16.4682L14.8583 15.1368ZM15.3745 14.9443L14.4317 14.0015C14.3051 14.128 14.2348 14.3014 14.2348 14.4752H15.5681H16.9015C16.9015 15.0048 16.6936 15.5108 16.3173 15.8871L15.3745 14.9443ZM15.5681 14.4752H14.2348V9.39383H15.5681H16.9015V14.4752H15.5681ZM15.5681 9.39383H14.2348C14.2348 8.44965 15.0002 7.68424 15.9444 7.68424V9.01757V10.3509C16.473 10.3509 16.9015 9.92241 16.9015 9.39383H15.5681ZM15.9444 9.01757V7.68424C16.888 7.68424 17.654 8.44888 17.654 9.39383H16.3206H14.9873C14.9873 9.92271 15.4163 10.3509 15.9444 10.3509V9.01757ZM16.3206 9.39383L17.654 9.39388L17.6537 15.6302L16.3204 15.6302L14.9871 15.6301L14.9873 9.39377L16.3206 9.39383ZM16.3204 15.6302H17.6537C17.6537 15.2595 17.3543 14.9601 16.9836 14.9601V16.2934V17.6267C15.8816 17.6267 14.9871 16.7322 14.9871 15.6302H16.3204ZM16.9836 16.2934V14.9601C16.8101 14.9601 16.6375 15.03 16.5113 15.156L17.4532 16.0997L18.3951 17.0435C18.0186 17.4192 17.5124 17.6267 16.9836 17.6267V16.2934ZM17.4532 16.0997L16.5095 15.1578C16.3834 15.2841 16.3135 15.4567 16.3135 15.6302H17.6468H18.9802C18.9802 16.159 18.7727 16.6652 18.3969 17.0417L17.4532 16.0997ZM17.6468 15.6302H16.3135V9.39382H17.6468H18.9802V15.6302H17.6468ZM17.6468 9.39382H16.3135C16.3135 8.4502 17.0781 7.68423 18.0231 7.68423V9.01757V10.3509C18.552 10.3509 18.9802 9.92185 18.9802 9.39382H17.6468ZM18.0231 9.01757V7.68423C18.9667 7.68423 19.7327 8.44887 19.7327 9.39382H18.3993H17.066C17.066 9.92271 17.495 10.3509 18.0231 10.3509V9.01757ZM18.3993 9.39382L19.7327 9.39388L19.7324 14.4168L18.3991 14.4168L17.0658 14.4167L17.066 9.39376L18.3993 9.39382ZM18.3991 14.4168H19.7324V14.4752H18.3991H17.0658V14.4168H18.3991ZM18.3991 14.4752H19.7324C19.7324 14.1036 19.4324 13.8048 19.0625 13.8048V15.1381V16.4715C17.9609 16.4715 17.0658 15.5776 17.0658 14.4752H18.3991ZM19.0625 15.1381V13.8048C18.8854 13.8048 18.7138 13.8769 18.591 13.9992L19.5321 14.9438L20.4731 15.8883C20.0987 16.2614 19.5945 16.4715 19.0625 16.4715V15.1381ZM19.5321 14.9438L18.5902 14.0001C18.4626 14.1274 18.3924 14.3013 18.3924 14.4749H19.7257H21.0591C21.0591 15.0043 20.8513 15.5109 20.474 15.8875L19.5321 14.9438ZM19.7257 14.4749H18.3924V9.39356H19.7257H21.0591V14.4749H19.7257ZM19.7257 9.39356H18.3924C18.3924 8.44992 19.157 7.68397 20.102 7.68397V9.01731V10.3506C20.6309 10.3506 21.0591 9.9216 21.0591 9.39356H19.7257ZM20.102 9.01731V7.68397C21.0456 7.68397 21.8116 8.4486 21.8116 9.39356H20.4782H19.1449C19.1449 9.92245 19.5739 10.3506 20.102 10.3506V9.01731ZM20.4782 9.39356L21.8116 9.39372L21.8111 13.2293L20.4778 13.2291L19.1444 13.2289L19.1449 9.39339L20.4782 9.39356ZM20.4778 13.2291H21.8111C21.8111 12.8592 21.5123 12.5592 21.1407 12.5592V13.8925V15.2259C20.0383 15.2259 19.1444 14.3307 19.1444 13.2291H20.4778ZM21.1407 13.8925V12.5592C20.9658 12.5592 20.7933 12.63 20.6679 12.7552L21.6098 13.6989L22.5517 14.6426C22.1766 15.017 21.6714 15.2259 21.1407 15.2259V13.8925ZM21.6098 13.6989L20.667 12.7561C20.54 12.883 20.4704 13.0563 20.4704 13.2291H21.8037H23.137C23.137 13.7572 22.9302 14.2641 22.5526 14.6417L21.6098 13.6989ZM21.8037 13.2291L20.4704 13.2291L20.4706 5.45471L21.8039 5.45475L23.1373 5.45479L23.137 13.2291L21.8037 13.2291ZM21.8039 5.45475H20.4706C20.4706 3.47684 19.0325 2.08546 17.5257 2.08546V0.752123V-0.58121C20.7371 -0.58121 23.1373 2.24719 23.1373 5.45475H21.8039Z" fill="#4CAF4F" mask="url(#path-1-inside-1_305_814)"/>
<mask id="path-3-inside-2_305_814" fill="white">
<path d="M0.753349 29.7443C1.47742 30.8596 2.66825 31.623 4.10676 31.8945C5.53251 32.1629 7.03197 31.9153 8.32972 31.1966L15.2824 27.3443C15.6207 27.1568 15.86 26.8591 15.9558 26.5055C16.0509 26.1527 15.9914 25.7862 15.7887 25.4739C15.6622 25.2787 15.4848 25.1249 15.2792 25.0112L15.2811 25.0101C15.6194 24.8226 15.8587 24.5249 15.9541 24.1718C16.0499 23.8187 15.9904 23.4519 15.7875 23.1393C15.6568 22.9384 15.4777 22.7814 15.2732 22.67C15.57 22.4814 15.7838 22.2075 15.8718 21.8825C15.9676 21.5292 15.9081 21.1627 15.7052 20.8504C15.5025 20.5379 15.1799 20.3171 14.7976 20.2289C14.6782 20.2012 14.557 20.1876 14.4371 20.1876C14.2018 20.1878 13.9708 20.2429 13.7585 20.3455C13.7455 20.0916 13.6637 19.8422 13.503 19.6282C13.0625 19.0411 12.18 18.8786 11.4925 19.2596L5.7991 22.414L6.53298 21.193C6.81454 20.7269 6.80422 20.1519 6.5057 19.6921C6.36025 19.4684 6.1524 19.2825 5.90401 19.1539C5.69984 19.0495 5.47872 19 5.26057 19C4.79204 19.0002 4.33699 19.2285 4.09478 19.6327C3.25058 21.0376 1.65752 23.6873 1.5455 23.8722C1.52167 23.9042 1.44968 23.9995 1.38801 24.0805C1.32929 24.1575 1.26591 24.231 1.20031 24.3041C-0.22129 25.8957 -0.392791 27.9801 0.753349 29.7443ZM1.80562 24.7659C1.88375 24.6785 1.9604 24.5894 2.03017 24.4975C2.24245 24.2192 2.24786 24.212 2.26383 24.1391C2.51197 23.7599 3.11734 22.7533 4.7814 19.9842C4.92734 19.7412 5.25903 19.6525 5.52315 19.7873C5.65312 19.8544 5.75754 19.9482 5.8337 20.0655C5.98799 20.3031 5.99389 20.5999 5.8482 20.8409L4.40402 23.2443C4.31778 23.3878 4.34653 23.5666 4.47404 23.6805C4.60131 23.7946 4.7959 23.8146 4.94872 23.7306L11.8963 19.881C12.2238 19.6997 12.6555 19.7707 12.8579 20.0407C12.9744 20.196 13.0115 20.3811 12.9629 20.562C12.9181 20.7272 12.8059 20.8665 12.6469 20.9546L12.6457 20.9555L8.10307 23.4726C7.91733 23.5756 7.85713 23.798 7.96867 23.9698C8.08021 24.1411 8.32075 24.1972 8.50699 24.0939L14.0839 21.0039C14.2422 20.9163 14.4284 20.8904 14.6073 20.9319C14.7866 20.9732 14.9375 21.0767 15.0325 21.2235C15.1279 21.3699 15.1554 21.5417 15.1112 21.7069C15.0664 21.8721 14.9542 22.0116 14.7955 22.0997L13.7102 22.7008L9.21876 25.1898C9.03302 25.2929 8.97282 25.5152 9.08437 25.687C9.19591 25.8584 9.43644 25.9142 9.62267 25.8112L14.1662 23.2934C14.493 23.1118 14.9185 23.2103 15.1151 23.5126C15.2104 23.6592 15.2379 23.831 15.1937 23.9962C15.149 24.1614 15.0367 24.3007 14.8778 24.389L13.7638 25.0062L10.3342 26.9068C10.1485 27.0098 10.0883 27.2322 10.1998 27.404C10.3114 27.5753 10.5519 27.6316 10.7381 27.5281L14.1677 25.6276C14.3259 25.54 14.5114 25.5141 14.6913 25.5556C14.8701 25.5969 15.0215 25.7004 15.1166 25.8468C15.2116 25.9934 15.2394 26.1654 15.1952 26.3304C15.1505 26.4956 15.0382 26.6349 14.8792 26.7232L7.9266 30.5755C6.79835 31.2007 5.4972 31.4172 4.2643 31.1848C3.04422 30.9547 2.03636 30.3109 1.42658 29.3719C0.441107 27.8555 0.583309 26.1336 1.80562 24.7659Z"/>
</mask>
<path d="M0.753349 29.7443C1.47742 30.8596 2.66825 31.623 4.10676 31.8945C5.53251 32.1629 7.03197 31.9153 8.32972 31.1966L15.2824 27.3443C15.6207 27.1568 15.86 26.8591 15.9558 26.5055C16.0509 26.1527 15.9914 25.7862 15.7887 25.4739C15.6622 25.2787 15.4848 25.1249 15.2792 25.0112L15.2811 25.0101C15.6194 24.8226 15.8587 24.5249 15.9541 24.1718C16.0499 23.8187 15.9904 23.4519 15.7875 23.1393C15.6568 22.9384 15.4777 22.7814 15.2732 22.67C15.57 22.4814 15.7838 22.2075 15.8718 21.8825C15.9676 21.5292 15.9081 21.1627 15.7052 20.8504C15.5025 20.5379 15.1799 20.3171 14.7976 20.2289C14.6782 20.2012 14.557 20.1876 14.4371 20.1876C14.2018 20.1878 13.9708 20.2429 13.7585 20.3455C13.7455 20.0916 13.6637 19.8422 13.503 19.6282C13.0625 19.0411 12.18 18.8786 11.4925 19.2596L5.7991 22.414L6.53298 21.193C6.81454 20.7269 6.80422 20.1519 6.5057 19.6921C6.36025 19.4684 6.1524 19.2825 5.90401 19.1539C5.69984 19.0495 5.47872 19 5.26057 19C4.79204 19.0002 4.33699 19.2285 4.09478 19.6327C3.25058 21.0376 1.65752 23.6873 1.5455 23.8722C1.52167 23.9042 1.44968 23.9995 1.38801 24.0805C1.32929 24.1575 1.26591 24.231 1.20031 24.3041C-0.22129 25.8957 -0.392791 27.9801 0.753349 29.7443ZM1.80562 24.7659C1.88375 24.6785 1.9604 24.5894 2.03017 24.4975C2.24245 24.2192 2.24786 24.212 2.26383 24.1391C2.51197 23.7599 3.11734 22.7533 4.7814 19.9842C4.92734 19.7412 5.25903 19.6525 5.52315 19.7873C5.65312 19.8544 5.75754 19.9482 5.8337 20.0655C5.98799 20.3031 5.99389 20.5999 5.8482 20.8409L4.40402 23.2443C4.31778 23.3878 4.34653 23.5666 4.47404 23.6805C4.60131 23.7946 4.7959 23.8146 4.94872 23.7306L11.8963 19.881C12.2238 19.6997 12.6555 19.7707 12.8579 20.0407C12.9744 20.196 13.0115 20.3811 12.9629 20.562C12.9181 20.7272 12.8059 20.8665 12.6469 20.9546L12.6457 20.9555L8.10307 23.4726C7.91733 23.5756 7.85713 23.798 7.96867 23.9698C8.08021 24.1411 8.32075 24.1972 8.50699 24.0939L14.0839 21.0039C14.2422 20.9163 14.4284 20.8904 14.6073 20.9319C14.7866 20.9732 14.9375 21.0767 15.0325 21.2235C15.1279 21.3699 15.1554 21.5417 15.1112 21.7069C15.0664 21.8721 14.9542 22.0116 14.7955 22.0997L13.7102 22.7008L9.21876 25.1898C9.03302 25.2929 8.97282 25.5152 9.08437 25.687C9.19591 25.8584 9.43644 25.9142 9.62267 25.8112L14.1662 23.2934C14.493 23.1118 14.9185 23.2103 15.1151 23.5126C15.2104 23.6592 15.2379 23.831 15.1937 23.9962C15.149 24.1614 15.0367 24.3007 14.8778 24.389L13.7638 25.0062L10.3342 26.9068C10.1485 27.0098 10.0883 27.2322 10.1998 27.404C10.3114 27.5753 10.5519 27.6316 10.7381 27.5281L14.1677 25.6276C14.3259 25.54 14.5114 25.5141 14.6913 25.5556C14.8701 25.5969 15.0215 25.7004 15.1166 25.8468C15.2116 25.9934 15.2394 26.1654 15.1952 26.3304C15.1505 26.4956 15.0382 26.6349 14.8792 26.7232L7.9266 30.5755C6.79835 31.2007 5.4972 31.4172 4.2643 31.1848C3.04422 30.9547 2.03636 30.3109 1.42658 29.3719C0.441107 27.8555 0.583309 26.1336 1.80562 24.7659Z" fill="#4CAF4F"/>
<path d="M0.753349 29.7443L1.87169 29.0183L1.87144 29.0179L0.753349 29.7443ZM4.10676 31.8945L3.85956 33.2047L3.86004 33.2048L4.10676 31.8945ZM8.32972 31.1966L8.97569 32.363L8.97594 32.3629L8.32972 31.1966ZM15.2824 27.3443L14.6362 26.178L14.6361 26.178L15.2824 27.3443ZM15.9558 26.5055L17.2427 26.8543L17.2432 26.8524L15.9558 26.5055ZM15.7887 25.4739L14.6699 26.1992L14.6704 26.1999L15.7887 25.4739ZM15.2792 25.0112L14.6125 23.8565L12.569 25.0364L14.6341 26.1781L15.2792 25.0112ZM15.2811 25.0101L14.6349 23.8438L14.6246 23.8495L14.6144 23.8554L15.2811 25.0101ZM15.9541 24.1718L14.6673 23.8226L14.6668 23.8243L15.9541 24.1718ZM15.7875 23.1393L16.9059 22.4133L16.905 22.412L15.7875 23.1393ZM15.2732 22.67L14.5582 21.5446L12.6486 22.7579L14.6351 23.8407L15.2732 22.67ZM15.8718 21.8825L14.5849 21.5335L14.5847 21.5342L15.8718 21.8825ZM15.7052 20.8504L14.5866 21.576L14.5872 21.577L15.7052 20.8504ZM14.7976 20.2289L14.4964 21.5277L14.4976 21.528L14.7976 20.2289ZM14.4371 20.1876L14.4371 18.8542L14.4359 18.8542L14.4371 20.1876ZM13.7585 20.3455L12.427 20.4138L12.5298 22.4201L14.3387 21.546L13.7585 20.3455ZM13.503 19.6282L12.4366 20.4284L12.4368 20.4287L13.503 19.6282ZM11.4925 19.2596L12.1387 20.4259L12.1388 20.4258L11.4925 19.2596ZM5.7991 22.414L4.65632 21.727L2.09294 25.9916L6.44526 23.5803L5.7991 22.414ZM6.53298 21.193L5.3917 20.5036L5.3902 20.5061L6.53298 21.193ZM6.5057 19.6921L7.62399 18.966L7.62361 18.9655L6.5057 19.6921ZM5.90401 19.1539L6.51729 17.9699L6.51099 17.9667L5.90401 19.1539ZM5.26057 19L5.26057 17.6667L5.25993 17.6667L5.26057 19ZM4.09478 19.6327L5.23766 20.3194L5.23847 20.3181L4.09478 19.6327ZM1.5455 23.8722L2.61482 24.6687L2.65294 24.6175L2.686 24.5629L1.5455 23.8722ZM1.38801 24.0805L2.44787 24.8895L2.44892 24.8882L1.38801 24.0805ZM1.20031 24.3041L0.208116 23.4134L0.20587 23.4159L1.20031 24.3041ZM1.80562 24.7659L0.811733 23.8771L0.811445 23.8774L1.80562 24.7659ZM2.03017 24.4975L0.970149 23.6887L0.968236 23.6912L2.03017 24.4975ZM2.26383 24.1391L1.14815 23.409L1.01392 23.6142L0.961424 23.8536L2.26383 24.1391ZM4.7814 19.9842L5.92425 20.671L5.92449 20.6706L4.7814 19.9842ZM5.52315 19.7873L6.1353 18.6028L6.12926 18.5997L5.52315 19.7873ZM5.8337 20.0655L4.71534 20.7915L4.71547 20.7917L5.8337 20.0655ZM5.8482 20.8409L4.70714 20.1512L4.70532 20.1542L5.8482 20.8409ZM4.40402 23.2443L5.54669 23.9314L5.5469 23.9311L4.40402 23.2443ZM4.47404 23.6805L5.36429 22.6879L5.36234 22.6862L4.47404 23.6805ZM4.94872 23.7306L5.59077 24.8992L5.59494 24.8969L4.94872 23.7306ZM11.8963 19.881L11.2505 18.7145L11.2501 18.7147L11.8963 19.881ZM12.8579 20.0407L11.7911 20.8406L11.7914 20.8409L12.8579 20.0407ZM12.9629 20.562L14.2499 20.9104L14.2504 20.9083L12.9629 20.562ZM12.6469 20.9546L12.0009 19.7882L11.9247 19.8304L11.8546 19.8822L12.6469 20.9546ZM12.6457 20.9555L13.2919 22.1218L13.368 22.0796L13.4379 22.0279L12.6457 20.9555ZM8.10307 23.4726L7.45683 22.3063L7.45634 22.3066L8.10307 23.4726ZM7.96867 23.9698L6.85042 24.6959L6.85127 24.6973L7.96867 23.9698ZM8.50699 24.0939L7.86078 22.9277L7.86045 22.9278L8.50699 24.0939ZM14.0839 21.0039L13.4381 19.8373L13.4377 19.8376L14.0839 21.0039ZM14.6073 20.9319L14.3057 22.2307L14.308 22.2312L14.6073 20.9319ZM15.0325 21.2235L13.9134 21.9483L13.9153 21.9512L15.0325 21.2235ZM15.1112 21.7069L16.3982 22.0552L16.3991 22.0517L15.1112 21.7069ZM14.7955 22.0997L15.4415 23.266L15.4423 23.2656L14.7955 22.0997ZM13.7102 22.7008L13.0641 21.5345L13.0639 21.5346L13.7102 22.7008ZM9.21876 25.1898L8.57248 24.0236L8.57203 24.0238L9.21876 25.1898ZM9.08437 25.687L7.96611 26.4132L7.96697 26.4145L9.08437 25.687ZM9.62267 25.8112L10.2681 26.9779L10.2689 26.9774L9.62267 25.8112ZM14.1662 23.2934L14.8125 24.4596L14.8138 24.4589L14.1662 23.2934ZM15.1151 23.5126L13.9973 24.2394L13.9973 24.2394L15.1151 23.5126ZM15.1937 23.9962L16.4807 24.3445L16.4817 24.3409L15.1937 23.9962ZM14.8778 24.389L15.524 25.5552L15.5251 25.5546L14.8778 24.389ZM13.7638 25.0062L13.1176 23.84L13.1175 23.84L13.7638 25.0062ZM10.3342 26.9068L9.68792 25.7405L9.68747 25.7408L10.3342 26.9068ZM10.1998 27.404L9.08155 28.1301L9.08241 28.1314L10.1998 27.404ZM10.7381 27.5281L10.0918 26.3619L10.0905 26.3626L10.7381 27.5281ZM14.1677 25.6276L13.5219 24.4611L13.5214 24.4613L14.1677 25.6276ZM14.6913 25.5556L14.9913 24.2565L14.9912 24.2565L14.6913 25.5556ZM15.1166 25.8468L16.2352 25.1212L16.2347 25.1204L15.1166 25.8468ZM15.1952 26.3304L16.4822 26.6787L16.483 26.6756L15.1952 26.3304ZM14.8792 26.7232L15.5254 27.8894L15.5265 27.8888L14.8792 26.7232ZM7.9266 30.5755L7.28039 29.4092L7.28033 29.4093L7.9266 30.5755ZM4.2643 31.1848L4.01719 32.495L4.01734 32.4951L4.2643 31.1848ZM1.42658 29.3719L2.54482 28.6457L2.54456 28.6453L1.42658 29.3719ZM0.753349 29.7443L-0.364991 30.4703C0.578618 31.9238 2.10313 32.8733 3.85956 33.2047L4.10676 31.8945L4.35397 30.5842C3.23336 30.3728 2.37622 29.7954 1.87169 29.0183L0.753349 29.7443ZM4.10676 31.8945L3.86004 33.2048C5.59825 33.5321 7.41271 33.2286 8.97569 32.363L8.32972 31.1966L7.68376 30.0302C6.65123 30.602 5.46677 30.7938 4.35349 30.5841L4.10676 31.8945ZM8.32972 31.1966L8.97594 32.3629L15.9286 28.5106L15.2824 27.3443L14.6361 26.178L7.68351 30.0304L8.32972 31.1966ZM15.2824 27.3443L15.9285 28.5106C16.5618 28.1597 17.0467 27.5776 17.2427 26.8543L15.9558 26.5055L14.6689 26.1568C14.67 26.1527 14.6718 26.1506 14.6704 26.1523C14.6688 26.1544 14.6597 26.165 14.6362 26.178L15.2824 27.3443ZM15.9558 26.5055L17.2432 26.8524C17.4389 26.126 17.3112 25.3705 16.9071 24.7479L15.7887 25.4739L14.6704 26.1999C14.6737 26.205 14.6699 26.2007 14.6678 26.1877C14.6668 26.1818 14.6665 26.1757 14.6668 26.17C14.6671 26.1643 14.6679 26.1603 14.6684 26.1586L15.9558 26.5055ZM15.7887 25.4739L16.9075 24.7486C16.6437 24.3416 16.2903 24.0467 15.9243 23.8443L15.2792 25.0112L14.6341 26.1781C14.6793 26.2031 14.6807 26.2159 14.6699 26.1992L15.7887 25.4739ZM15.2792 25.0112L15.9459 26.1659L15.9478 26.1647L15.2811 25.0101L14.6144 23.8554L14.6125 23.8565L15.2792 25.0112ZM15.2811 25.0101L15.9273 26.1763C16.5602 25.8257 17.0458 25.2434 17.2413 24.5192L15.9541 24.1718L14.6668 23.8243C14.6673 23.8223 14.6681 23.8204 14.6689 23.8188C14.6697 23.8172 14.67 23.8171 14.6691 23.8182C14.6675 23.8201 14.6585 23.8307 14.6349 23.8438L15.2811 25.0101ZM15.9541 24.1718L17.2409 24.5209C17.4384 23.7929 17.3102 23.0363 16.9059 22.4133L15.7875 23.1393L14.6691 23.8652C14.6726 23.8706 14.6687 23.8663 14.6665 23.853C14.6656 23.8469 14.6652 23.8406 14.6655 23.8346C14.6659 23.8286 14.6667 23.8245 14.6673 23.8226L15.9541 24.1718ZM15.7875 23.1393L16.905 22.412C16.6422 22.0082 16.2904 21.7059 15.9114 21.4992L15.2732 22.67L14.6351 23.8407C14.65 23.8488 14.6593 23.856 14.6642 23.8605C14.6667 23.8627 14.6682 23.8643 14.6689 23.8652C14.6697 23.8661 14.67 23.8665 14.67 23.8666L15.7875 23.1393ZM15.2732 22.67L15.9883 23.7954C16.5353 23.4478 16.9748 22.9107 17.1588 22.2308L15.8718 21.8825L14.5847 21.5342C14.586 21.5293 14.5878 21.5249 14.5895 21.5214C14.5913 21.5179 14.5924 21.5165 14.592 21.5171C14.5912 21.518 14.5824 21.5292 14.5582 21.5446L15.2732 22.67ZM15.8718 21.8825L17.1586 22.2315C17.356 21.5036 17.2281 20.7469 16.8231 20.1238L15.7052 20.8504L14.5872 21.577C14.5904 21.582 14.5864 21.5774 14.5842 21.5638C14.5832 21.5576 14.5829 21.5512 14.5832 21.5453C14.5835 21.5393 14.5844 21.5353 14.5849 21.5335L15.8718 21.8825ZM15.7052 20.8504L16.8238 20.1248C16.4219 19.5052 15.7965 19.0911 15.0975 18.9297L14.7976 20.2289L14.4976 21.528C14.5312 21.5358 14.5529 21.5471 14.5654 21.5557C14.5777 21.5641 14.5835 21.5713 14.5866 21.576L15.7052 20.8504ZM14.7976 20.2289L15.0987 18.93C14.8799 18.8793 14.6578 18.8542 14.4371 18.8542V20.1876V21.5209C14.4563 21.5209 14.4764 21.5231 14.4964 21.5277L14.7976 20.2289ZM14.4371 20.1876L14.4359 18.8542C13.9917 18.8547 13.5636 18.9589 13.1784 19.145L13.7585 20.3455L14.3387 21.546C14.378 21.527 14.4118 21.5209 14.4384 21.5209L14.4371 20.1876ZM13.7585 20.3455L15.0901 20.2772C15.0647 19.7807 14.9023 19.2712 14.5693 18.8276L13.503 19.6282L12.4368 20.4287C12.4348 20.4261 12.4328 20.423 12.431 20.4196C12.4292 20.4163 12.428 20.4133 12.4273 20.4111C12.4257 20.4067 12.4266 20.4071 12.427 20.4138L13.7585 20.3455ZM13.503 19.6282L14.5695 18.8279C13.6891 17.6547 12.0552 17.4234 10.8462 18.0934L11.4925 19.2596L12.1388 20.4258C12.2013 20.3912 12.2786 20.3793 12.3497 20.3923C12.4213 20.4055 12.4405 20.4337 12.4366 20.4284L13.503 19.6282ZM11.4925 19.2596L10.8464 18.0933L5.15293 21.2477L5.7991 22.414L6.44526 23.5803L12.1387 20.4259L11.4925 19.2596ZM5.7991 22.414L6.94187 23.1009L7.67575 21.88L6.53298 21.193L5.3902 20.5061L4.65632 21.727L5.7991 22.414ZM6.53298 21.193L7.67424 21.8825C8.22198 20.9757 8.19856 19.851 7.62399 18.966L6.5057 19.6921L5.38742 20.4182C5.40103 20.4392 5.40358 20.4548 5.40375 20.4643C5.40393 20.4738 5.40199 20.4866 5.39171 20.5036L6.53298 21.193ZM6.5057 19.6921L7.62361 18.9655C7.34602 18.5384 6.96004 18.1993 6.51728 17.9699L5.90401 19.1539L5.29074 20.3378C5.34477 20.3658 5.37449 20.3983 5.3878 20.4188L6.5057 19.6921ZM5.90401 19.1539L6.51099 17.9667C6.11032 17.7618 5.67989 17.6667 5.26057 17.6667V19V20.3333C5.27754 20.3333 5.28936 20.3371 5.29703 20.341L5.90401 19.1539ZM5.26057 19L5.25993 17.6667C4.38035 17.6671 3.46214 18.0945 2.95109 18.9473L4.09478 19.6327L5.23847 20.3181C5.23254 20.328 5.22629 20.335 5.22177 20.3392C5.21751 20.3432 5.21586 20.3437 5.2183 20.3424C5.22084 20.341 5.22631 20.3386 5.23458 20.3365C5.24283 20.3345 5.25198 20.3333 5.26122 20.3333L5.26057 19ZM4.09478 19.6327L2.9519 18.946C2.10663 20.3527 0.515456 22.9992 0.405008 23.1815L1.5455 23.8722L2.686 24.5629C2.79959 24.3754 4.39452 21.7226 5.23766 20.3194L4.09478 19.6327ZM1.5455 23.8722L0.476187 23.0758C0.456692 23.1019 0.388168 23.1927 0.327104 23.2729L1.38801 24.0805L2.44892 24.8882C2.5112 24.8064 2.58665 24.7065 2.61482 24.6687L1.5455 23.8722ZM1.38801 24.0805L0.328157 23.2715C0.300335 23.308 0.263458 23.3517 0.208119 23.4134L1.20031 24.3041L2.19249 25.1948C2.26836 25.1103 2.35825 25.007 2.44787 24.8895L1.38801 24.0805ZM1.20031 24.3041L0.20587 23.4159C-1.60813 25.4469 -1.84538 28.1916 -0.364747 30.4707L0.753349 29.7443L1.87144 29.0179C1.0598 27.7686 1.16555 26.3446 2.19474 25.1923L1.20031 24.3041ZM1.80562 24.7659L2.7995 25.6547C2.88743 25.5564 2.991 25.4369 3.09211 25.3037L2.03017 24.4975L0.968236 23.6912C0.929795 23.7418 0.880063 23.8007 0.811733 23.8771L1.80562 24.7659ZM2.03017 24.4975L3.0902 25.3062C3.1769 25.1926 3.2726 25.0688 3.33654 24.971C3.37932 24.9056 3.43875 24.8069 3.4895 24.6792C3.53933 24.5538 3.56158 24.4459 3.56623 24.4247L2.26383 24.1391L0.961424 23.8536C0.958093 23.8688 0.973679 23.7891 1.01137 23.6943C1.04998 23.5971 1.09179 23.5313 1.10469 23.5116C1.11101 23.5019 1.11368 23.4984 1.10956 23.5041C1.10567 23.5096 1.09848 23.5194 1.08608 23.536C1.0603 23.5705 1.02481 23.617 0.970152 23.6887L2.03017 24.4975ZM2.26383 24.1391L3.3795 24.8692C3.64609 24.4619 4.27246 23.4197 5.92425 20.671L4.7814 19.9842L3.63856 19.2975C1.96221 22.0869 1.37786 23.058 1.14815 23.409L2.26383 24.1391ZM4.7814 19.9842L5.92449 20.6706C5.68621 21.0675 5.23567 21.1375 4.91704 20.9749L5.52315 19.7873L6.12926 18.5997C5.28239 18.1675 4.16848 18.4149 3.63832 19.2979L4.7814 19.9842ZM5.52315 19.7873L4.911 20.9718C4.84393 20.9371 4.77044 20.8763 4.71534 20.7915L5.8337 20.0655L6.95206 19.3395C6.74464 19.02 6.4623 18.7718 6.1353 18.6028L5.52315 19.7873ZM5.8337 20.0655L4.71547 20.7917C4.59475 20.6058 4.58532 20.3527 4.70714 20.1512L5.8482 20.8409L6.98925 21.5307C7.40247 20.8471 7.38123 20.0004 6.95193 19.3393L5.8337 20.0655ZM5.8482 20.8409L4.70532 20.1542L3.26114 22.5576L4.40402 23.2443L5.5469 23.9311L6.99107 21.5277L5.8482 20.8409ZM4.40402 23.2443L3.26134 22.5573C2.83435 23.2674 2.99638 24.1483 3.58574 24.6748L4.47404 23.6805L5.36234 22.6862C5.69667 22.9848 5.80122 23.5081 5.54669 23.9314L4.40402 23.2443ZM4.47404 23.6805L3.5838 24.6731C4.14865 25.1797 4.96076 25.2454 5.59076 24.8992L4.94872 23.7306L4.30667 22.5621C4.63103 22.3839 5.05396 22.4096 5.36429 22.6879L4.47404 23.6805ZM4.94872 23.7306L5.59494 24.8969L12.5425 21.0473L11.8963 19.881L11.2501 18.7147L4.30249 22.5644L4.94872 23.7306ZM11.8963 19.881L12.5421 21.0475C12.4281 21.1106 12.3112 21.1244 12.2061 21.107C12.1042 21.0901 11.9312 21.0273 11.7911 20.8406L12.8579 20.0407L13.9247 19.2409C13.2586 18.3525 12.0614 18.2656 11.2505 18.7145L11.8963 19.881ZM12.8579 20.0407L11.7914 20.8409C11.6713 20.6809 11.6134 20.4456 11.6753 20.2157L12.9629 20.562L14.2504 20.9083C14.4096 20.3166 14.2775 19.711 13.9245 19.2406L12.8579 20.0407ZM12.9629 20.562L11.6758 20.2137C11.7319 20.0065 11.8669 19.8624 12.0009 19.7882L12.6469 20.9546L13.2929 22.121C13.7448 21.8707 14.1044 21.4479 14.2499 20.9104L12.9629 20.562ZM12.6469 20.9546L11.8546 19.8822L11.8534 19.8831L12.6457 20.9555L13.4379 22.0279L13.4392 22.027L12.6469 20.9546ZM12.6457 20.9555L11.9994 19.7892L7.45683 22.3063L8.10307 23.4726L8.7493 24.6389L13.2919 22.1218L12.6457 20.9555ZM8.10307 23.4726L7.45634 22.3066C6.64047 22.7591 6.29004 23.833 6.85042 24.6959L7.96867 23.9698L9.08693 23.2437C9.42422 23.7631 9.19418 24.3921 8.7498 24.6386L8.10307 23.4726ZM7.96867 23.9698L6.85127 24.6973C7.36611 25.4881 8.39041 25.6831 9.15352 25.26L8.50699 24.0939L7.86045 22.9278C8.2511 22.7112 8.79432 22.7942 9.08607 23.2423L7.96867 23.9698ZM8.50699 24.0939L9.15319 25.2602L14.7301 22.1701L14.0839 21.0039L13.4377 19.8376L7.86078 22.9277L8.50699 24.0939ZM14.0839 21.0039L14.7297 22.1704C14.5965 22.2441 14.4448 22.263 14.3057 22.2307L14.6073 20.9319L14.9088 19.6331C14.4119 19.5178 13.8878 19.5884 13.4381 19.8373L14.0839 21.0039ZM14.6073 20.9319L14.308 22.2312C14.169 22.1992 14.017 22.1083 13.9134 21.9483L15.0325 21.2235L16.1517 20.4988C15.8579 20.0451 15.4042 19.7472 14.9065 19.6326L14.6073 20.9319ZM15.0325 21.2235L13.9153 21.9512C13.807 21.785 13.7682 21.5676 13.8232 21.3621L15.1112 21.7069L16.3991 22.0517C16.5426 21.5158 16.4487 20.9548 16.1498 20.4959L15.0325 21.2235ZM15.1112 21.7069L13.8241 21.3585C13.8799 21.1524 14.0142 21.0083 14.1486 20.9338L14.7955 22.0997L15.4423 23.2656C15.8941 23.0149 16.253 22.5918 16.3982 22.0552L15.1112 21.7069ZM14.7955 22.0997L14.1494 20.9334L13.0641 21.5345L13.7102 22.7008L14.3563 23.8672L15.4415 23.266L14.7955 22.0997ZM13.7102 22.7008L13.0639 21.5346L8.57248 24.0236L9.21876 25.1898L9.86504 26.3561L14.3565 23.8671L13.7102 22.7008ZM9.21876 25.1898L8.57203 24.0238C7.75616 24.4764 7.40573 25.5502 7.96611 26.4132L9.08437 25.687L10.2026 24.9609C10.5399 25.4803 10.3099 26.1093 9.86549 26.3558L9.21876 25.1898ZM9.08437 25.687L7.96697 26.4145C8.4825 27.2064 9.50672 27.3991 10.2681 26.9779L9.62267 25.8112L8.97722 24.6445C9.36617 24.4293 9.90931 24.5104 10.2018 24.9596L9.08437 25.687ZM9.62267 25.8112L10.2689 26.9774L14.8125 24.4596L14.1662 23.2934L13.52 22.1271L8.97641 24.6449L9.62267 25.8112ZM14.1662 23.2934L14.8138 24.4589C14.6713 24.538 14.5191 24.5507 14.3892 24.5206C14.2594 24.4906 14.1057 24.4062 13.9973 24.2394L15.1151 23.5126L16.2329 22.7857C15.6329 21.8631 14.4226 21.6256 13.5187 22.1278L14.1662 23.2934ZM15.1151 23.5126L13.9973 24.2394C13.8898 24.0741 13.8507 23.8571 13.9057 23.6514L15.1937 23.9962L16.4817 24.3409C16.6252 23.8048 16.531 23.2442 16.2329 22.7857L15.1151 23.5126ZM15.1937 23.9962L13.9067 23.6478C13.9628 23.4406 14.0977 23.297 14.2304 23.2233L14.8778 24.389L15.5251 25.5546C15.9757 25.3044 16.3352 24.8822 16.4807 24.3445L15.1937 23.9962ZM14.8778 24.389L14.2315 23.2227L13.1176 23.84L13.7638 25.0062L14.41 26.1725L15.524 25.5552L14.8778 24.389ZM13.7638 25.0062L13.1175 23.84L9.68792 25.7405L10.3342 26.9068L10.9805 28.073L14.4101 26.1725L13.7638 25.0062ZM10.3342 26.9068L9.68747 25.7408C8.8716 26.1933 8.52118 27.2671 9.08155 28.1301L10.1998 27.404L11.3181 26.6778C11.6554 27.1973 11.4253 27.8263 10.9809 28.0728L10.3342 26.9068ZM10.1998 27.404L9.08241 28.1314C9.59655 28.9212 10.6209 29.1186 11.3857 28.6936L10.7381 27.5281L10.0905 26.3626C10.4829 26.1446 11.0262 26.2294 11.3172 26.6765L10.1998 27.404ZM10.7381 27.5281L11.3844 28.6943L14.814 26.7938L14.1677 25.6276L13.5214 24.4613L10.0918 26.3619L10.7381 27.5281ZM14.1677 25.6276L14.8135 26.7941C14.6799 26.868 14.528 26.8863 14.3913 26.8548L14.6913 25.5556L14.9912 24.2565C14.4948 24.1418 13.972 24.2119 13.5219 24.4611L14.1677 25.6276ZM14.6913 25.5556L14.3913 26.8548C14.2537 26.823 14.1025 26.7334 13.9984 26.5731L15.1166 25.8468L16.2347 25.1204C15.9404 24.6674 15.4866 24.3708 14.9913 24.2565L14.6913 25.5556ZM15.1166 25.8468L13.9979 26.5723C13.8919 26.4088 13.8517 26.1927 13.9073 25.9851L15.1952 26.3304L16.483 26.6756C16.6271 26.1381 16.5314 25.5779 16.2352 25.1212L15.1166 25.8468ZM15.1952 26.3304L13.9082 25.982C13.9642 25.7748 14.0992 25.6312 14.2319 25.5575L14.8792 26.7232L15.5265 27.8888C15.9772 27.6386 16.3367 27.2164 16.4822 26.6787L15.1952 26.3304ZM14.8792 26.7232L14.233 25.5569L7.28039 29.4092L7.9266 30.5755L8.57281 31.7418L15.5254 27.8894L14.8792 26.7232ZM7.9266 30.5755L7.28033 29.4093C6.41563 29.8884 5.42952 30.0476 4.51125 29.8745L4.2643 31.1848L4.01734 32.4951C5.56488 32.7867 7.18107 32.513 8.57286 31.7417L7.9266 30.5755ZM4.2643 31.1848L4.51141 29.8746C3.60616 29.7038 2.9335 29.2442 2.54482 28.6457L1.42658 29.3719L0.308333 30.098C1.13923 31.3775 2.48229 32.2055 4.01719 32.495L4.2643 31.1848ZM1.42658 29.3719L2.54456 28.6453C1.89392 27.6441 1.97 26.5829 2.79979 25.6544L1.80562 24.7659L0.811445 23.8774C-0.803381 25.6843 -1.01171 28.0668 0.308594 30.0984L1.42658 29.3719Z" fill="#4CAF4F" mask="url(#path-3-inside-2_305_814)"/>
<mask id="path-5-inside-3_305_814" fill="white">
<path d="M34.2467 29.7443C33.5226 30.8596 32.3318 31.623 30.8932 31.8945C29.4675 32.1629 27.968 31.9153 26.6703 31.1966L19.7176 27.3443C19.3793 27.1568 19.14 26.8591 19.0442 26.5055C18.9491 26.1527 19.0086 25.7862 19.2113 25.4739C19.3378 25.2787 19.5152 25.1249 19.7208 25.0112L19.7189 25.0101C19.3806 24.8226 19.1413 24.5249 19.0459 24.1718C18.9501 23.8187 19.0096 23.4519 19.2125 23.1393C19.3432 22.9384 19.5223 22.7814 19.7268 22.67C19.43 22.4814 19.2162 22.2075 19.1282 21.8825C19.0324 21.5292 19.0919 21.1627 19.2948 20.8504C19.4975 20.5379 19.8201 20.3171 20.2024 20.2289C20.3218 20.2012 20.443 20.1876 20.5629 20.1876C20.7982 20.1878 21.0292 20.2429 21.2415 20.3455C21.2545 20.0916 21.3363 19.8422 21.497 19.6282C21.9375 19.0411 22.82 18.8786 23.5075 19.2596L29.2009 22.414L28.467 21.193C28.1855 20.7269 28.1958 20.1519 28.4943 19.6921C28.6397 19.4684 28.8476 19.2825 29.096 19.1539C29.3002 19.0495 29.5213 19 29.7394 19C30.208 19.0002 30.663 19.2285 30.9052 19.6327C31.7494 21.0376 33.3425 23.6873 33.4545 23.8722C33.4783 23.9042 33.5503 23.9995 33.612 24.0805C33.6707 24.1575 33.7341 24.231 33.7997 24.3041C35.2213 25.8957 35.3928 27.9801 34.2467 29.7443ZM33.1944 24.7659C33.1163 24.6785 33.0396 24.5894 32.9698 24.4975C32.7575 24.2192 32.7521 24.212 32.7362 24.1391C32.488 23.7599 31.8827 22.7533 30.2186 19.9842C30.0727 19.7412 29.741 19.6525 29.4769 19.7873C29.3469 19.8544 29.2425 19.9482 29.1663 20.0655C29.012 20.3031 29.0061 20.5999 29.1518 20.8409L30.596 23.2443C30.6822 23.3878 30.6535 23.5666 30.526 23.6805C30.3987 23.7946 30.2041 23.8146 30.0513 23.7306L23.1037 19.881C22.7762 19.6997 22.3445 19.7707 22.1421 20.0407C22.0256 20.196 21.9885 20.3811 22.0371 20.562C22.0819 20.7272 22.1941 20.8665 22.3531 20.9546L22.3543 20.9555L26.8969 23.4726C27.0827 23.5756 27.1429 23.798 27.0313 23.9698C26.9198 24.1411 26.6792 24.1972 26.493 24.0939L20.9161 21.0039C20.7578 20.9163 20.5716 20.8904 20.3927 20.9319C20.2134 20.9732 20.0625 21.0767 19.9675 21.2235C19.8721 21.3699 19.8446 21.5417 19.8888 21.7069C19.9336 21.8721 20.0458 22.0116 20.2045 22.0997L21.2898 22.7008L25.7812 25.1898C25.967 25.2929 26.0272 25.5152 25.9156 25.687C25.8041 25.8584 25.5636 25.9142 25.3773 25.8112L20.8338 23.2934C20.507 23.1118 20.0815 23.2103 19.8849 23.5126C19.7896 23.6592 19.7621 23.831 19.8063 23.9962C19.851 24.1614 19.9633 24.3007 20.1222 24.389L21.2362 25.0062L24.6658 26.9068C24.8515 27.0098 24.9117 27.2322 24.8002 27.404C24.6886 27.5753 24.4481 27.6316 24.2619 27.5281L20.8323 25.6276C20.6741 25.54 20.4886 25.5141 20.3087 25.5556C20.1299 25.5969 19.9785 25.7004 19.8834 25.8468C19.7884 25.9934 19.7606 26.1654 19.8048 26.3304C19.8495 26.4956 19.9618 26.6349 20.1208 26.7232L27.0734 30.5755C28.2016 31.2007 29.5028 31.4172 30.7357 31.1848C31.9558 30.9547 32.9636 30.3109 33.5734 29.3719C34.5589 27.8555 34.4167 26.1336 33.1944 24.7659Z"/>
</mask>
<path d="M34.2467 29.7443C33.5226 30.8596 32.3318 31.623 30.8932 31.8945C29.4675 32.1629 27.968 31.9153 26.6703 31.1966L19.7176 27.3443C19.3793 27.1568 19.14 26.8591 19.0442 26.5055C18.9491 26.1527 19.0086 25.7862 19.2113 25.4739C19.3378 25.2787 19.5152 25.1249 19.7208 25.0112L19.7189 25.0101C19.3806 24.8226 19.1413 24.5249 19.0459 24.1718C18.9501 23.8187 19.0096 23.4519 19.2125 23.1393C19.3432 22.9384 19.5223 22.7814 19.7268 22.67C19.43 22.4814 19.2162 22.2075 19.1282 21.8825C19.0324 21.5292 19.0919 21.1627 19.2948 20.8504C19.4975 20.5379 19.8201 20.3171 20.2024 20.2289C20.3218 20.2012 20.443 20.1876 20.5629 20.1876C20.7982 20.1878 21.0292 20.2429 21.2415 20.3455C21.2545 20.0916 21.3363 19.8422 21.497 19.6282C21.9375 19.0411 22.82 18.8786 23.5075 19.2596L29.2009 22.414L28.467 21.193C28.1855 20.7269 28.1958 20.1519 28.4943 19.6921C28.6397 19.4684 28.8476 19.2825 29.096 19.1539C29.3002 19.0495 29.5213 19 29.7394 19C30.208 19.0002 30.663 19.2285 30.9052 19.6327C31.7494 21.0376 33.3425 23.6873 33.4545 23.8722C33.4783 23.9042 33.5503 23.9995 33.612 24.0805C33.6707 24.1575 33.7341 24.231 33.7997 24.3041C35.2213 25.8957 35.3928 27.9801 34.2467 29.7443ZM33.1944 24.7659C33.1163 24.6785 33.0396 24.5894 32.9698 24.4975C32.7575 24.2192 32.7521 24.212 32.7362 24.1391C32.488 23.7599 31.8827 22.7533 30.2186 19.9842C30.0727 19.7412 29.741 19.6525 29.4769 19.7873C29.3469 19.8544 29.2425 19.9482 29.1663 20.0655C29.012 20.3031 29.0061 20.5999 29.1518 20.8409L30.596 23.2443C30.6822 23.3878 30.6535 23.5666 30.526 23.6805C30.3987 23.7946 30.2041 23.8146 30.0513 23.7306L23.1037 19.881C22.7762 19.6997 22.3445 19.7707 22.1421 20.0407C22.0256 20.196 21.9885 20.3811 22.0371 20.562C22.0819 20.7272 22.1941 20.8665 22.3531 20.9546L22.3543 20.9555L26.8969 23.4726C27.0827 23.5756 27.1429 23.798 27.0313 23.9698C26.9198 24.1411 26.6792 24.1972 26.493 24.0939L20.9161 21.0039C20.7578 20.9163 20.5716 20.8904 20.3927 20.9319C20.2134 20.9732 20.0625 21.0767 19.9675 21.2235C19.8721 21.3699 19.8446 21.5417 19.8888 21.7069C19.9336 21.8721 20.0458 22.0116 20.2045 22.0997L21.2898 22.7008L25.7812 25.1898C25.967 25.2929 26.0272 25.5152 25.9156 25.687C25.8041 25.8584 25.5636 25.9142 25.3773 25.8112L20.8338 23.2934C20.507 23.1118 20.0815 23.2103 19.8849 23.5126C19.7896 23.6592 19.7621 23.831 19.8063 23.9962C19.851 24.1614 19.9633 24.3007 20.1222 24.389L21.2362 25.0062L24.6658 26.9068C24.8515 27.0098 24.9117 27.2322 24.8002 27.404C24.6886 27.5753 24.4481 27.6316 24.2619 27.5281L20.8323 25.6276C20.6741 25.54 20.4886 25.5141 20.3087 25.5556C20.1299 25.5969 19.9785 25.7004 19.8834 25.8468C19.7884 25.9934 19.7606 26.1654 19.8048 26.3304C19.8495 26.4956 19.9618 26.6349 20.1208 26.7232L27.0734 30.5755C28.2016 31.2007 29.5028 31.4172 30.7357 31.1848C31.9558 30.9547 32.9636 30.3109 33.5734 29.3719C34.5589 27.8555 34.4167 26.1336 33.1944 24.7659Z" fill="#4CAF4F"/>
<path d="M34.2467 29.7443L33.1283 29.0183L33.1286 29.0179L34.2467 29.7443ZM30.8932 31.8945L31.1404 33.2047L31.14 33.2048L30.8932 31.8945ZM26.6703 31.1966L26.0243 32.363L26.0241 32.3629L26.6703 31.1966ZM19.7176 27.3443L20.3638 26.178L20.3639 26.178L19.7176 27.3443ZM19.0442 26.5055L17.7573 26.8543L17.7568 26.8524L19.0442 26.5055ZM19.2113 25.4739L20.3301 26.1992L20.3296 26.1999L19.2113 25.4739ZM19.7208 25.0112L20.3875 23.8565L22.431 25.0364L20.3659 26.1781L19.7208 25.0112ZM19.7189 25.0101L20.3651 23.8438L20.3754 23.8495L20.3856 23.8554L19.7189 25.0101ZM19.0459 24.1718L20.3327 23.8226L20.3332 23.8243L19.0459 24.1718ZM19.2125 23.1393L18.0941 22.4133L18.095 22.412L19.2125 23.1393ZM19.7268 22.67L20.4418 21.5446L22.3514 22.7579L20.3649 23.8407L19.7268 22.67ZM19.1282 21.8825L20.4151 21.5335L20.4153 21.5342L19.1282 21.8825ZM19.2948 20.8504L20.4134 21.576L20.4128 21.577L19.2948 20.8504ZM20.2024 20.2289L20.5036 21.5277L20.5024 21.528L20.2024 20.2289ZM20.5629 20.1876L20.5629 18.8542L20.5641 18.8542L20.5629 20.1876ZM21.2415 20.3455L22.573 20.4138L22.4702 22.4201L20.6613 21.546L21.2415 20.3455ZM21.497 19.6282L22.5634 20.4284L22.5632 20.4287L21.497 19.6282ZM23.5075 19.2596L22.8613 20.4259L22.8612 20.4258L23.5075 19.2596ZM29.2009 22.414L30.3437 21.727L32.9071 25.9916L28.5547 23.5803L29.2009 22.414ZM28.467 21.193L29.6083 20.5036L29.6098 20.5061L28.467 21.193ZM28.4943 19.6921L27.376 18.966L27.3764 18.9655L28.4943 19.6921ZM29.096 19.1539L28.4827 17.9699L28.489 17.9667L29.096 19.1539ZM29.7394 19L29.7394 17.6667L29.7401 17.6667L29.7394 19ZM30.9052 19.6327L29.7623 20.3194L29.7615 20.3181L30.9052 19.6327ZM33.4545 23.8722L32.3852 24.6687L32.3471 24.6175L32.314 24.5629L33.4545 23.8722ZM33.612 24.0805L32.5521 24.8895L32.5511 24.8882L33.612 24.0805ZM33.7997 24.3041L34.7919 23.4134L34.7941 23.4159L33.7997 24.3041ZM33.1944 24.7659L34.1883 23.8771L34.1886 23.8774L33.1944 24.7659ZM32.9698 24.4975L34.0299 23.6887L34.0318 23.6912L32.9698 24.4975ZM32.7362 24.1391L33.8518 23.409L33.9861 23.6142L34.0386 23.8536L32.7362 24.1391ZM30.2186 19.9842L29.0758 20.671L29.0755 20.6706L30.2186 19.9842ZM29.4769 19.7873L28.8647 18.6028L28.8707 18.5997L29.4769 19.7873ZM29.1663 20.0655L30.2847 20.7915L30.2845 20.7917L29.1663 20.0655ZM29.1518 20.8409L30.2929 20.1512L30.2947 20.1542L29.1518 20.8409ZM30.596 23.2443L29.4533 23.9314L29.4531 23.9311L30.596 23.2443ZM30.526 23.6805L29.6357 22.6879L29.6377 22.6862L30.526 23.6805ZM30.0513 23.7306L29.4092 24.8992L29.4051 24.8969L30.0513 23.7306ZM23.1037 19.881L23.7495 18.7145L23.7499 18.7147L23.1037 19.881ZM22.1421 20.0407L23.2089 20.8406L23.2086 20.8409L22.1421 20.0407ZM22.0371 20.562L20.7501 20.9104L20.7496 20.9083L22.0371 20.562ZM22.3531 20.9546L22.9991 19.7882L23.0753 19.8304L23.1454 19.8822L22.3531 20.9546ZM22.3543 20.9555L21.7081 22.1218L21.632 22.0796L21.5621 22.0279L22.3543 20.9555ZM26.8969 23.4726L27.5432 22.3063L27.5437 22.3066L26.8969 23.4726ZM27.0313 23.9698L28.1496 24.6959L28.1487 24.6973L27.0313 23.9698ZM26.493 24.0939L27.1392 22.9277L27.1396 22.9278L26.493 24.0939ZM20.9161 21.0039L21.5619 19.8373L21.5623 19.8376L20.9161 21.0039ZM20.3927 20.9319L20.6943 22.2307L20.692 22.2312L20.3927 20.9319ZM19.9675 21.2235L21.0866 21.9483L21.0847 21.9512L19.9675 21.2235ZM19.8888 21.7069L18.6018 22.0552L18.6009 22.0517L19.8888 21.7069ZM20.2045 22.0997L19.5585 23.266L19.5577 23.2656L20.2045 22.0997ZM21.2898 22.7008L21.9359 21.5345L21.9361 21.5346L21.2898 22.7008ZM25.7812 25.1898L26.4275 24.0236L26.428 24.0238L25.7812 25.1898ZM25.9156 25.687L27.0339 26.4132L27.033 26.4145L25.9156 25.687ZM25.3773 25.8112L24.7319 26.9779L24.7311 26.9774L25.3773 25.8112ZM20.8338 23.2934L20.1875 24.4596L20.1862 24.4589L20.8338 23.2934ZM19.8849 23.5126L21.0027 24.2394L21.0027 24.2394L19.8849 23.5126ZM19.8063 23.9962L18.5193 24.3445L18.5183 24.3409L19.8063 23.9962ZM20.1222 24.389L19.476 25.5552L19.4749 25.5546L20.1222 24.389ZM21.2362 25.0062L21.8824 23.84L21.8825 23.84L21.2362 25.0062ZM24.6658 26.9068L25.3121 25.7405L25.3125 25.7408L24.6658 26.9068ZM24.8002 27.404L25.9184 28.1301L25.9176 28.1314L24.8002 27.404ZM24.2619 27.5281L24.9082 26.3619L24.9095 26.3626L24.2619 27.5281ZM20.8323 25.6276L21.4781 24.4611L21.4786 24.4613L20.8323 25.6276ZM20.3087 25.5556L20.0087 24.2565L20.0088 24.2565L20.3087 25.5556ZM19.8834 25.8468L18.7648 25.1212L18.7653 25.1204L19.8834 25.8468ZM19.8048 26.3304L18.5178 26.6787L18.517 26.6756L19.8048 26.3304ZM20.1208 26.7232L19.4746 27.8894L19.4735 27.8888L20.1208 26.7232ZM27.0734 30.5755L27.7196 29.4092L27.7197 29.4093L27.0734 30.5755ZM30.7357 31.1848L30.9828 32.495L30.9827 32.4951L30.7357 31.1848ZM33.5734 29.3719L32.4552 28.6457L32.4554 28.6453L33.5734 29.3719ZM34.2467 29.7443L35.365 30.4703C34.4214 31.9238 32.8969 32.8733 31.1404 33.2047L30.8932 31.8945L30.646 30.5842C31.7666 30.3728 32.6238 29.7954 33.1283 29.0183L34.2467 29.7443ZM30.8932 31.8945L31.14 33.2048C29.4018 33.5321 27.5873 33.2286 26.0243 32.363L26.6703 31.1966L27.3162 30.0302C28.3488 30.602 29.5332 30.7938 30.6465 30.5841L30.8932 31.8945ZM26.6703 31.1966L26.0241 32.3629L19.0714 28.5106L19.7176 27.3443L20.3639 26.178L27.3165 30.0304L26.6703 31.1966ZM19.7176 27.3443L19.0715 28.5106C18.4382 28.1597 17.9533 27.5776 17.7573 26.8543L19.0442 26.5055L20.3311 26.1568C20.33 26.1527 20.3282 26.1506 20.3296 26.1523C20.3312 26.1544 20.3403 26.165 20.3638 26.178L19.7176 27.3443ZM19.0442 26.5055L17.7568 26.8524C17.5611 26.126 17.6888 25.3705 18.0929 24.7479L19.2113 25.4739L20.3296 26.1999C20.3263 26.205 20.3301 26.2007 20.3322 26.1877C20.3332 26.1818 20.3335 26.1757 20.3332 26.17C20.3329 26.1643 20.3321 26.1603 20.3316 26.1586L19.0442 26.5055ZM19.2113 25.4739L18.0925 24.7486C18.3563 24.3416 18.7097 24.0467 19.0757 23.8443L19.7208 25.0112L20.3659 26.1781C20.3207 26.2031 20.3193 26.2159 20.3301 26.1992L19.2113 25.4739ZM19.7208 25.0112L19.0541 26.1659L19.0522 26.1647L19.7189 25.0101L20.3856 23.8554L20.3875 23.8565L19.7208 25.0112ZM19.7189 25.0101L19.0727 26.1763C18.4398 25.8257 17.9542 25.2434 17.7587 24.5192L19.0459 24.1718L20.3332 23.8243C20.3327 23.8223 20.3319 23.8204 20.3311 23.8188C20.3303 23.8172 20.33 23.8171 20.3309 23.8182C20.3325 23.8201 20.3415 23.8307 20.3651 23.8438L19.7189 25.0101ZM19.0459 24.1718L17.7591 24.5209C17.5616 23.7929 17.6898 23.0363 18.0941 22.4133L19.2125 23.1393L20.3309 23.8652C20.3274 23.8706 20.3313 23.8663 20.3335 23.853C20.3344 23.8469 20.3348 23.8406 20.3345 23.8346C20.3341 23.8286 20.3333 23.8245 20.3327 23.8226L19.0459 24.1718ZM19.2125 23.1393L18.095 22.412C18.3578 22.0082 18.7096 21.7059 19.0886 21.4992L19.7268 22.67L20.3649 23.8407C20.35 23.8488 20.3407 23.856 20.3358 23.8605C20.3333 23.8627 20.3318 23.8643 20.3311 23.8652C20.3303 23.8661 20.33 23.8665 20.33 23.8666L19.2125 23.1393ZM19.7268 22.67L19.0117 23.7954C18.4647 23.4478 18.0252 22.9107 17.8412 22.2308L19.1282 21.8825L20.4153 21.5342C20.414 21.5293 20.4122 21.5249 20.4105 21.5214C20.4087 21.5179 20.4076 21.5165 20.408 21.5171C20.4088 21.518 20.4176 21.5292 20.4418 21.5446L19.7268 22.67ZM19.1282 21.8825L17.8414 22.2315C17.644 21.5036 17.7719 20.7469 18.1769 20.1238L19.2948 20.8504L20.4128 21.577C20.4096 21.582 20.4136 21.5774 20.4158 21.5638C20.4168 21.5576 20.4171 21.5512 20.4168 21.5453C20.4165 21.5393 20.4156 21.5353 20.4151 21.5335L19.1282 21.8825ZM19.2948 20.8504L18.1762 20.1248C18.5781 19.5052 19.2035 19.0911 19.9025 18.9297L20.2024 20.2289L20.5024 21.528C20.4688 21.5358 20.4471 21.5471 20.4346 21.5557C20.4223 21.5641 20.4165 21.5713 20.4134 21.576L19.2948 20.8504ZM20.2024 20.2289L19.9013 18.93C20.1201 18.8793 20.3422 18.8542 20.5629 18.8542V20.1876V21.5209C20.5437 21.5209 20.5236 21.5231 20.5036 21.5277L20.2024 20.2289ZM20.5629 20.1876L20.5641 18.8542C21.0083 18.8547 21.4364 18.9589 21.8216 19.145L21.2415 20.3455L20.6613 21.546C20.622 21.527 20.5882 21.5209 20.5616 21.5209L20.5629 20.1876ZM21.2415 20.3455L19.9099 20.2772C19.9353 19.7807 20.0977 19.2712 20.4307 18.8276L21.497 19.6282L22.5632 20.4287C22.5652 20.4261 22.5672 20.423 22.569 20.4196C22.5708 20.4163 22.572 20.4133 22.5727 20.4111C22.5743 20.4067 22.5734 20.4071 22.573 20.4138L21.2415 20.3455ZM21.497 19.6282L20.4305 18.8279C21.3109 17.6547 22.9448 17.4234 24.1538 18.0934L23.5075 19.2596L22.8612 20.4258C22.7987 20.3912 22.7214 20.3793 22.6503 20.3923C22.5787 20.4055 22.5595 20.4337 22.5634 20.4284L21.497 19.6282ZM23.5075 19.2596L24.1536 18.0933L29.8471 21.2477L29.2009 22.414L28.5547 23.5803L22.8613 20.4259L23.5075 19.2596ZM29.2009 22.414L28.0581 23.1009L27.3243 21.88L28.467 21.193L29.6098 20.5061L30.3437 21.727L29.2009 22.414ZM28.467 21.193L27.3258 21.8825C26.778 20.9757 26.8014 19.851 27.376 18.966L28.4943 19.6921L29.6126 20.4182C29.599 20.4392 29.5964 20.4548 29.5962 20.4643C29.5961 20.4738 29.598 20.4866 29.6083 20.5036L28.467 21.193ZM28.4943 19.6921L27.3764 18.9655C27.654 18.5384 28.04 18.1993 28.4827 17.9699L29.096 19.1539L29.7093 20.3378C29.6552 20.3658 29.6255 20.3983 29.6122 20.4188L28.4943 19.6921ZM29.096 19.1539L28.489 17.9667C28.8897 17.7618 29.3201 17.6667 29.7394 17.6667V19V20.3333C29.7225 20.3333 29.7106 20.3371 29.703 20.341L29.096 19.1539ZM29.7394 19L29.7401 17.6667C30.6197 17.6671 31.5379 18.0945 32.0489 18.9473L30.9052 19.6327L29.7615 20.3181C29.7675 20.328 29.7737 20.335 29.7782 20.3392C29.7825 20.3432 29.7841 20.3437 29.7817 20.3424C29.7792 20.341 29.7737 20.3386 29.7654 20.3365C29.7572 20.3345 29.748 20.3333 29.7388 20.3333L29.7394 19ZM30.9052 19.6327L32.0481 18.946C32.8934 20.3527 34.4845 22.9992 34.595 23.1815L33.4545 23.8722L32.314 24.5629C32.2004 24.3754 30.6055 21.7226 29.7623 20.3194L30.9052 19.6327ZM33.4545 23.8722L34.5238 23.0758C34.5433 23.1019 34.6118 23.1927 34.6729 23.2729L33.612 24.0805L32.5511 24.8882C32.4888 24.8064 32.4134 24.7065 32.3852 24.6687L33.4545 23.8722ZM33.612 24.0805L34.6718 23.2715C34.6997 23.308 34.7365 23.3517 34.7919 23.4134L33.7997 24.3041L32.8075 25.1948C32.7316 25.1103 32.6417 25.007 32.5521 24.8895L33.612 24.0805ZM33.7997 24.3041L34.7941 23.4159C36.6081 25.4469 36.8454 28.1916 35.3647 30.4707L34.2467 29.7443L33.1286 29.0179C33.9402 27.7686 33.8345 26.3446 32.8053 25.1923L33.7997 24.3041ZM33.1944 24.7659L32.2005 25.6547C32.1126 25.5564 32.009 25.4369 31.9079 25.3037L32.9698 24.4975L34.0318 23.6912C34.0702 23.7418 34.1199 23.8007 34.1883 23.8771L33.1944 24.7659ZM32.9698 24.4975L31.9098 25.3062C31.8231 25.1926 31.7274 25.0688 31.6635 24.971C31.6207 24.9056 31.5613 24.8069 31.5105 24.6792C31.4607 24.5538 31.4384 24.4459 31.4338 24.4247L32.7362 24.1391L34.0386 23.8536C34.0419 23.8688 34.0263 23.7891 33.9886 23.6943C33.95 23.5971 33.9082 23.5313 33.8953 23.5116C33.889 23.5019 33.8863 23.4984 33.8904 23.5041C33.8943 23.5096 33.9015 23.5194 33.9139 23.536C33.9397 23.5705 33.9752 23.617 34.0298 23.6887L32.9698 24.4975ZM32.7362 24.1391L31.6205 24.8692C31.3539 24.4619 30.7275 23.4197 29.0758 20.671L30.2186 19.9842L31.3614 19.2975C33.0378 22.0869 33.6221 23.058 33.8518 23.409L32.7362 24.1391ZM30.2186 19.9842L29.0755 20.6706C29.3138 21.0675 29.7643 21.1375 30.083 20.9749L29.4769 19.7873L28.8707 18.5997C29.7176 18.1675 30.8315 18.4149 31.3617 19.2979L30.2186 19.9842ZM29.4769 19.7873L30.089 20.9718C30.1561 20.9371 30.2296 20.8763 30.2847 20.7915L29.1663 20.0655L28.0479 19.3395C28.2554 19.02 28.5377 18.7718 28.8647 18.6028L29.4769 19.7873ZM29.1663 20.0655L30.2845 20.7917C30.4052 20.6058 30.4147 20.3527 30.2929 20.1512L29.1518 20.8409L28.0108 21.5307C27.5975 20.8471 27.6188 20.0004 28.0481 19.3393L29.1663 20.0655ZM29.1518 20.8409L30.2947 20.1542L31.7389 22.5576L30.596 23.2443L29.4531 23.9311L28.0089 21.5277L29.1518 20.8409ZM30.596 23.2443L31.7387 22.5573C32.1657 23.2674 32.0036 24.1483 31.4143 24.6748L30.526 23.6805L29.6377 22.6862C29.3033 22.9848 29.1988 23.5081 29.4533 23.9314L30.596 23.2443ZM30.526 23.6805L31.4162 24.6731C30.8513 25.1797 30.0392 25.2454 29.4092 24.8992L30.0513 23.7306L30.6933 22.5621C30.369 22.3839 29.946 22.4096 29.6357 22.6879L30.526 23.6805ZM30.0513 23.7306L29.4051 24.8969L22.4575 21.0473L23.1037 19.881L23.7499 18.7147L30.6975 22.5644L30.0513 23.7306ZM23.1037 19.881L22.4579 21.0475C22.5719 21.1106 22.6888 21.1244 22.7939 21.107C22.8958 21.0901 23.0688 21.0273 23.2089 20.8406L22.1421 20.0407L21.0753 19.2409C21.7414 18.3525 22.9386 18.2656 23.7495 18.7145L23.1037 19.881ZM22.1421 20.0407L23.2086 20.8409C23.3287 20.6809 23.3866 20.4456 23.3247 20.2157L22.0371 20.562L20.7496 20.9083C20.5904 20.3166 20.7225 19.711 21.0755 19.2406L22.1421 20.0407ZM22.0371 20.562L23.3242 20.2137C23.2681 20.0065 23.1331 19.8624 22.9991 19.7882L22.3531 20.9546L21.7071 22.121C21.2552 21.8707 20.8956 21.4479 20.7501 20.9104L22.0371 20.562ZM22.3531 20.9546L23.1454 19.8822L23.1466 19.8831L22.3543 20.9555L21.5621 22.0279L21.5608 22.027L22.3531 20.9546ZM22.3543 20.9555L23.0006 19.7892L27.5432 22.3063L26.8969 23.4726L26.2507 24.6389L21.7081 22.1218L22.3543 20.9555ZM26.8969 23.4726L27.5437 22.3066C28.3595 22.7591 28.71 23.833 28.1496 24.6959L27.0313 23.9698L25.9131 23.2437C25.5758 23.7631 25.8058 24.3921 26.2502 24.6386L26.8969 23.4726ZM27.0313 23.9698L28.1487 24.6973C27.6339 25.4881 26.6096 25.6831 25.8465 25.26L26.493 24.0939L27.1396 22.9278C26.7489 22.7112 26.2057 22.7942 25.9139 23.2423L27.0313 23.9698ZM26.493 24.0939L25.8468 25.2602L20.2699 22.1701L20.9161 21.0039L21.5623 19.8376L27.1392 22.9277L26.493 24.0939ZM20.9161 21.0039L20.2703 22.1704C20.4035 22.2441 20.5552 22.263 20.6943 22.2307L20.3927 20.9319L20.0912 19.6331C20.5881 19.5178 21.1122 19.5884 21.5619 19.8373L20.9161 21.0039ZM20.3927 20.9319L20.692 22.2312C20.831 22.1992 20.983 22.1083 21.0866 21.9483L19.9675 21.2235L18.8483 20.4988C19.1421 20.0451 19.5958 19.7472 20.0935 19.6326L20.3927 20.9319ZM19.9675 21.2235L21.0847 21.9512C21.193 21.785 21.2318 21.5676 21.1768 21.3621L19.8888 21.7069L18.6009 22.0517C18.4574 21.5158 18.5513 20.9548 18.8502 20.4959L19.9675 21.2235ZM19.8888 21.7069L21.1759 21.3585C21.1201 21.1524 20.9858 21.0083 20.8514 20.9338L20.2045 22.0997L19.5577 23.2656C19.1059 23.0149 18.747 22.5918 18.6018 22.0552L19.8888 21.7069ZM20.2045 22.0997L20.8506 20.9334L21.9359 21.5345L21.2898 22.7008L20.6437 23.8672L19.5585 23.266L20.2045 22.0997ZM21.2898 22.7008L21.9361 21.5346L26.4275 24.0236L25.7812 25.1898L25.135 26.3561L20.6435 23.8671L21.2898 22.7008ZM25.7812 25.1898L26.428 24.0238C27.2438 24.4764 27.5943 25.5502 27.0339 26.4132L25.9156 25.687L24.7974 24.9609C24.4601 25.4803 24.6901 26.1093 25.1345 26.3558L25.7812 25.1898ZM25.9156 25.687L27.033 26.4145C26.5175 27.2064 25.4933 27.3991 24.7319 26.9779L25.3773 25.8112L26.0228 24.6445C25.6338 24.4293 25.0907 24.5104 24.7982 24.9596L25.9156 25.687ZM25.3773 25.8112L24.7311 26.9774L20.1875 24.4596L20.8338 23.2934L21.48 22.1271L26.0236 24.6449L25.3773 25.8112ZM20.8338 23.2934L20.1862 24.4589C20.3287 24.538 20.4809 24.5507 20.6108 24.5206C20.7406 24.4906 20.8943 24.4062 21.0027 24.2394L19.8849 23.5126L18.7671 22.7857C19.3671 21.8631 20.5774 21.6256 21.4813 22.1278L20.8338 23.2934ZM19.8849 23.5126L21.0027 24.2394C21.1102 24.0741 21.1493 23.8571 21.0943 23.6514L19.8063 23.9962L18.5183 24.3409C18.3748 23.8048 18.469 23.2442 18.7671 22.7857L19.8849 23.5126ZM19.8063 23.9962L21.0933 23.6478C21.0372 23.4406 20.9023 23.297 20.7696 23.2233L20.1222 24.389L19.4749 25.5546C19.0243 25.3044 18.6648 24.8822 18.5193 24.3445L19.8063 23.9962ZM20.1222 24.389L20.7685 23.2227L21.8824 23.84L21.2362 25.0062L20.59 26.1725L19.476 25.5552L20.1222 24.389ZM21.2362 25.0062L21.8825 23.84L25.3121 25.7405L24.6658 26.9068L24.0195 28.073L20.5899 26.1725L21.2362 25.0062ZM24.6658 26.9068L25.3125 25.7408C26.1284 26.1933 26.4788 27.2671 25.9184 28.1301L24.8002 27.404L23.6819 26.6778C23.3446 27.1973 23.5747 27.8263 24.0191 28.0728L24.6658 26.9068ZM24.8002 27.404L25.9176 28.1314C25.4034 28.9212 24.3791 29.1186 23.6143 28.6936L24.2619 27.5281L24.9095 26.3626C24.5171 26.1446 23.9738 26.2294 23.6828 26.6765L24.8002 27.404ZM24.2619 27.5281L23.6156 28.6943L20.186 26.7938L20.8323 25.6276L21.4786 24.4613L24.9082 26.3619L24.2619 27.5281ZM20.8323 25.6276L20.1865 26.7941C20.3201 26.868 20.472 26.8863 20.6087 26.8548L20.3087 25.5556L20.0088 24.2565C20.5052 24.1418 21.028 24.2119 21.4781 24.4611L20.8323 25.6276ZM20.3087 25.5556L20.6087 26.8548C20.7463 26.823 20.8975 26.7334 21.0016 26.5731L19.8834 25.8468L18.7653 25.1204C19.0596 24.6674 19.5134 24.3708 20.0087 24.2565L20.3087 25.5556ZM19.8834 25.8468L21.0021 26.5723C21.1081 26.4088 21.1483 26.1927 21.0927 25.9851L19.8048 26.3304L18.517 26.6756C18.3729 26.1381 18.4686 25.5779 18.7648 25.1212L19.8834 25.8468ZM19.8048 26.3304L21.0918 25.982C21.0358 25.7748 20.9008 25.6312 20.7681 25.5575L20.1208 26.7232L19.4735 27.8888C19.0228 27.6386 18.6633 27.2164 18.5178 26.6787L19.8048 26.3304ZM20.1208 26.7232L20.767 25.5569L27.7196 29.4092L27.0734 30.5755L26.4272 31.7418L19.4746 27.8894L20.1208 26.7232ZM27.0734 30.5755L27.7197 29.4093C28.5844 29.8884 29.5705 30.0476 30.4887 29.8745L30.7357 31.1848L30.9827 32.4951C29.4351 32.7867 27.8189 32.513 26.4271 31.7417L27.0734 30.5755ZM30.7357 31.1848L30.4886 29.8746C31.3938 29.7038 32.0665 29.2442 32.4552 28.6457L33.5734 29.3719L34.6917 30.098C33.8608 31.3775 32.5177 32.2055 30.9828 32.495L30.7357 31.1848ZM33.5734 29.3719L32.4554 28.6453C33.1061 27.6441 33.03 26.5829 32.2002 25.6544L33.1944 24.7659L34.1886 23.8774C35.8034 25.6843 36.0117 28.0668 34.6914 30.0984L33.5734 29.3719Z" fill="#4CAF4F" mask="url(#path-5-inside-3_305_814)"/>
</svg>
